<?xml version="1.0" encoding="utf-8"?>
<!-- Generator: Adobe Illustrator 21.0.0, SVG Export Plug-In . SVG Version: 6.00 Build 0)  -->
<svg version="1.1" id="Layer_1" xmlns="http://www.w3.org/2000/svg" xmlns:xlink="http://www.w3.org/1999/xlink" x="0px" y="0px"
	 width="338px" height="134.9px" viewBox="0 0 338 134.9" style="enable-background:new 0 0 338 134.9;" xml:space="preserve">
<style type="text/css">
	.st0{fill:#FFFFFF;}
	.st1{fill:none;stroke:#FFFFFF;stroke-width:3;stroke-miterlimit:10;}
</style>
<g>
	<g>
		<path class="st0" d="M11.5,54.9H8.9V31h2.3l0.1,2.9h0.1c1.6-2.1,4.2-3.3,7.2-3.3c5.3,0,7.9,3.5,7.9,8.6v15.8h-2.6V39.1
			c0-3.9-1.9-6.3-5.8-6.3c-3,0-5.3,1.5-6.5,3.3L11.5,54.9L11.5,54.9z"/>
		<path class="st0" d="M31.8,42.7v4.1c0,3.9,2.2,6.4,6.2,6.4c3,0,4.8-1.3,6.2-4.5l2,0.7c-1.3,3.9-4,5.8-8.2,5.8
			c-5.6,0-8.7-3.4-8.7-8.4v-8c0-4.9,3.1-8.4,8.5-8.4c5.3,0,8.4,3.7,8.4,8.5v3.6H31.8C31.8,42.5,31.8,42.7,31.8,42.7z M31.8,40.7
			h11.9v-2c0-3.7-2.2-6.1-6-6.1c-4,0-5.9,2.6-5.9,6.2V40.7z"/>
		<path class="st0" d="M62,33.9L62,33.9l-5.9,20.9h-2.9l-7-23.9H49l5.6,20.9h0.1L60.7,31h2.6l5.9,21.2h0.1l5.6-21.1h2.8L70.6,55
			h-2.9L62,33.9z"/>
		<path class="st0" d="M78.4,50.3l1.9-1.1c1.3,3,3.6,4,6.1,4c3.4,0,5.1-1.9,5.1-4.7c0-6.3-12.8-3.8-12.8-11.7c0-3.4,2.5-6.4,7.5-6.4
			c3.4,0,6.1,1.6,7.4,4.7l-1.8,1c-1.2-2.5-3-3.6-5.6-3.6c-3.4,0-5,1.7-5,4c0,6.1,12.8,3.6,12.8,11.8c0,4.1-3,6.9-7.5,6.9
			C82.9,55.3,80,53.8,78.4,50.3z"/>
		<path class="st0" d="M119.3,36.5c-1.1-2.5-3.2-3.8-5.9-3.8c-3.8,0-6,2.3-6,6.3v7.8c0,3.9,2.2,6.3,6,6.3c2.9,0,4.8-1.3,5.9-4l2,0.7
			c-1.3,3.2-3.8,5.5-8,5.5c-5.5,0-8.5-3.5-8.5-8.4v-7.9c0-4.9,3-8.4,8.5-8.4c3.7,0,6.4,2,7.9,5L119.3,36.5z"/>
		<path class="st0" d="M124.7,42.7v4.1c0,3.9,2.2,6.4,6.2,6.4c3,0,4.8-1.3,6.2-4.5l2,0.7c-1.3,3.9-4,5.8-8.2,5.8
			c-5.6,0-8.7-3.4-8.7-8.4v-8c0-4.9,3.1-8.4,8.5-8.4c5.3,0,8.4,3.7,8.4,8.5v3.6h-14.3L124.7,42.7L124.7,42.7z M124.7,40.7h11.9v-2
			c0-3.7-2.2-6.1-6-6.1c-4,0-5.9,2.6-5.9,6.2V40.7z"/>
		<path class="st0" d="M144.4,54.9h-2.6V31h2.3l0.1,2.9h0.1c1.6-2.1,4.2-3.3,7.2-3.3c5.3,0,7.9,3.5,7.9,8.6v15.8h-2.6V39.1
			c0-3.9-1.9-6.3-5.8-6.3c-3,0-5.3,1.5-6.5,3.3L144.4,54.9L144.4,54.9z"/>
		<path class="st0" d="M173.4,33.1h-6.5V49c0,3.1,1.4,4.1,3.5,4.1c1,0,1.7-0.2,2.5-0.5l0.4,1.7c-1,0.6-2.1,1-3.8,1
			c-3.6,0-5.5-2.2-5.5-6.4V33.2l-3.4-0.5v-1.6l3.5-0.2l0.6-6.9h2v7h6.5L173.4,33.1L173.4,33.1z"/>
		<path class="st0" d="M187.5,33.7c-0.7-0.4-1.6-0.5-2.5-0.5c-3.9,0-6.1,3.4-6.4,8V55h-2.6V31h2.3l0.2,4.9h0.1
			c1.3-3.6,3.6-5.3,6.5-5.3c1,0,2.1,0.3,3,0.6L187.5,33.7z"/>
		<path class="st0" d="M190.4,42.7v4.1c0,3.9,2.2,6.4,6.2,6.4c3,0,4.8-1.3,6.2-4.5l2,0.7c-1.3,3.9-4,5.8-8.2,5.8
			c-5.6,0-8.7-3.4-8.7-8.4v-8c0-4.9,3.1-8.4,8.5-8.4c5.3,0,8.4,3.7,8.4,8.5v3.6h-14.3L190.4,42.7L190.4,42.7z M190.4,40.7h11.9v-2
			c0-3.7-2.2-6.1-6-6.1c-4,0-5.9,2.6-5.9,6.2V40.7z"/>
	</g>
</g>
<g>
	<g>
		<path class="st0" d="M23.4,92.1c-1.1-2.5-3.2-3.8-5.9-3.8c-3.8,0-6,2.3-6,6.3v7.8c0,3.9,2.2,6.3,6,6.3c2.9,0,4.8-1.3,5.9-4l2,0.7
			c-1.3,3.2-3.8,5.5-8,5.5c-5.5,0-8.5-3.5-8.5-8.4v-7.9c0-4.9,3-8.4,8.5-8.4c3.7,0,6.4,2,7.9,5L23.4,92.1z"/>
		<path class="st0" d="M28.9,98.2v4.1c0,3.9,2.2,6.4,6.2,6.4c3,0,4.8-1.3,6.2-4.5l2,0.7c-1.3,3.9-4,5.8-8.2,5.8
			c-5.6,0-8.7-3.4-8.7-8.4v-8c0-4.9,3.1-8.4,8.5-8.4c5.3,0,8.4,3.7,8.4,8.5V98L28.9,98.2L28.9,98.2z M28.9,96.3h11.9v-2
			c0-3.7-2.2-6.1-6-6.1c-4,0-5.9,2.6-5.9,6.2V96.3z"/>
		<path class="st0" d="M48.6,110.5h-2.7V86.6h2.3l0.1,2.9h0.1c1.6-2.1,4.2-3.3,7.2-3.3c5.3,0,7.9,3.5,7.9,8.6v15.8h-2.6V94.7
			c0-3.9-1.9-6.3-5.8-6.3c-3,0-5.3,1.5-6.5,3.3C48.6,91.8,48.6,110.5,48.6,110.5z"/>
		<path class="st0" d="M77.6,88.7H71v15.8c0,3.1,1.4,4.1,3.5,4.1c1,0,1.7-0.2,2.5-0.5l0.4,1.7c-1,0.6-2.1,1-3.8,1
			c-3.6,0-5.5-2.2-5.5-6.4V88.8l-3.4-0.5v-1.6l3.5-0.2l0.6-6.9h2v7h6.5L77.6,88.7L77.6,88.7z"/>
		<path class="st0" d="M91.6,89.3c-0.7-0.4-1.6-0.5-2.5-0.5c-3.9,0-6.1,3.4-6.4,8v13.9h-2.6v-24h2.3l0.2,4.9h0.1
			c1.3-3.6,3.6-5.3,6.5-5.3c1,0,2.1,0.3,3,0.6L91.6,89.3z"/>
		<path class="st0" d="M94.7,98.2v4.1c0,3.9,2.2,6.4,6.2,6.4c3,0,4.8-1.3,6.2-4.5l2,0.7c-1.3,3.9-4,5.8-8.2,5.8
			c-5.6,0-8.7-3.4-8.7-8.4v-8c0-4.9,3.1-8.4,8.5-8.4c5.3,0,8.4,3.7,8.4,8.5V98L94.7,98.2L94.7,98.2z M94.7,96.3h11.9v-2
			c0-3.7-2.2-6.1-6-6.1c-4,0-5.9,2.6-5.9,6.2C94.7,94.4,94.7,96.3,94.7,96.3z"/>
		<path class="st0" d="M134.8,89.1L134.8,89.1l0.1-14.3h2.6v35.6h-2.3l-0.2-2.7h-0.1c-1.7,2-4.2,3.1-7.2,3.1c-5.2,0-7.9-3.5-7.9-8.6
			v-7.7c0-5,2.7-8.5,8-8.5C130.7,86.1,133.2,87.2,134.8,89.1z M135,91.7c-1.3-1.8-3.3-3.3-6.5-3.3c-3.9,0-5.8,2.5-5.8,6.4v7.7
			c0,3.8,1.9,6.4,5.8,6.4c3,0,5.3-1.5,6.5-3.3V91.7z"/>
		<path class="st0" d="M143.6,98.2v4.1c0,3.9,2.2,6.4,6.2,6.4c3,0,4.8-1.3,6.2-4.5l2,0.7c-1.3,3.9-4,5.8-8.2,5.8
			c-5.6,0-8.7-3.4-8.7-8.4v-8c0-4.9,3.1-8.4,8.5-8.4c5.3,0,8.4,3.7,8.4,8.5V98L143.6,98.2L143.6,98.2z M143.6,96.3h11.9v-2
			c0-3.7-2.2-6.1-6-6.1c-4,0-5.9,2.6-5.9,6.2V96.3z"/>
		<path class="st0" d="M172.5,110.5h-2.6V86.6h2.3l0.1,2.9h0.1c1.6-2.1,4.2-3.3,7.2-3.3c5.3,0,7.9,3.5,7.9,8.6v15.8h-2.6V94.7
			c0-3.9-1.9-6.3-5.8-6.3c-3,0-5.3,1.5-6.5,3.3L172.5,110.5L172.5,110.5z"/>
		<path class="st0" d="M207.9,102.6c0,4.9-3.2,8.3-8.9,8.3c-5.6,0-8.8-3.3-8.8-8.3v-8.1c0-4.9,3.1-8.4,8.8-8.4
			c5.6,0,8.9,3.4,8.9,8.4V102.6z M192.9,102.5c0,3.8,2,6.2,6.2,6.2s6.3-2.5,6.3-6.2v-8c0-3.7-2-6.3-6.3-6.3s-6.2,2.6-6.2,6.3V102.5z
			"/>
		<path class="st0" d="M241.9,110.5H239l-9-23.9h3l7.3,21.2h0.1l7.3-21.2h3L241.9,110.5z"/>
		<path class="st0" d="M225.7,86.6h2.6v23.9H226l-0.2-2.8l0,0c-1.6,2.1-4.1,3.2-7.2,3.2c-5.2,0-7.9-3.5-7.9-8.6V86.6h2.6v15.8
			c0,3.8,1.9,6.3,5.8,6.3c3,0,5.3-1.4,6.5-3.2L225.7,86.6L225.7,86.6z"/>
		<path class="st0" d="M253.7,98.2v4.1c0,3.9,2.2,6.4,6.2,6.4c3,0,4.8-1.3,6.2-4.5l2,0.7c-1.3,3.9-4,5.8-8.2,5.8
			c-5.6,0-8.7-3.4-8.7-8.4v-8c0-4.9,3.1-8.4,8.5-8.4c5.3,0,8.4,3.7,8.4,8.5V98L253.7,98.2L253.7,98.2z M253.7,96.3h11.9v-2
			c0-3.7-2.2-6.1-6-6.1c-4,0-5.9,2.6-5.9,6.2L253.7,96.3L253.7,96.3z"/>
		<path class="st0" d="M274,74.8v35.6h-2.6V74.8H274z"/>
		<path class="st0" d="M282,74.8v35.6h-2.6V74.8H282z"/>
		<path class="st0" d="M288.5,98.2v4.1c0,3.9,2.2,6.4,6.2,6.4c3,0,4.8-1.3,6.2-4.5l2,0.7c-1.3,3.9-4,5.8-8.2,5.8
			c-5.6,0-8.7-3.4-8.7-8.4v-8c0-4.9,3.1-8.4,8.5-8.4c5.3,0,8.4,3.7,8.4,8.5V98L288.5,98.2L288.5,98.2z M288.5,96.3h11.9v-2
			c0-3.7-2.2-6.1-6-6.1c-4,0-5.9,2.6-5.9,6.2L288.5,96.3L288.5,96.3z"/>
		<path class="st0" d="M304.3,105.9l1.9-1.1c1.3,3,3.6,4,6.1,4c3.4,0,5.1-1.9,5.1-4.7c0-6.3-12.8-3.8-12.8-11.7
			c0-3.4,2.5-6.4,7.5-6.4c3.4,0,6.1,1.6,7.4,4.7l-1.8,1c-1.2-2.5-3-3.6-5.6-3.6c-3.4,0-5,1.7-5,4c0,6.1,12.8,3.6,12.8,11.8
			c0,4.1-3,6.9-7.5,6.9C308.8,110.9,305.9,109.4,304.3,105.9z"/>
	</g>
</g>
<line class="st1" x1="8.9" y1="68.1" x2="319.9" y2="68.1"/>
</svg>
